<svg width="47" height="72" viewBox="0 0 47 72" fill="none" xmlns="http://www.w3.org/2000/svg">
<path d="M11.75 71.3334C18.236 71.3334 23.5 66.0694 23.5 59.5834V47.8334H11.75C5.264 47.8334 0 53.0974 0 59.5834C0 66.0694 5.264 71.3334 11.75 71.3334Z" fill="#0ACF83"/>
<path d="M0 36.0834C0 29.5974 5.264 24.3334 11.75 24.3334H23.5V47.8334H11.75C5.264 47.8334 0 42.5694 0 36.0834Z" fill="#A259FF"/>
<path d="M0 12.5834C0 6.09737 5.264 0.833374 11.75 0.833374H23.5V24.3334H11.75C5.264 24.3334 0 19.0694 0 12.5834Z" fill="#F24E1E"/>
<path d="M23.5 0.833374H35.25C41.736 0.833374 47 6.09737 47 12.5834C47 19.0694 41.736 24.3334 35.25 24.3334H23.5V0.833374Z" fill="#FF7262"/>
<path d="M47 36.0834C47 42.5694 41.736 47.8334 35.25 47.8334C28.764 47.8334 23.5 42.5694 23.5 36.0834C23.5 29.5974 28.764 24.3334 35.25 24.3334C41.736 24.3334 47 29.5974 47 36.0834Z" fill="#1ABCFE"/>
</svg>
