<svg width="26" height="26" viewBox="0 0 26 26" fill="none" xmlns="http://www.w3.org/2000/svg">
<path fill-rule="evenodd" clip-rule="evenodd" d="M12 1C12 0.447715 12.4477 0 13 0V0C13.5523 0 14 0.447714 14 0.999999V10.0119C14 10.1071 14.0607 10.1913 14.1486 10.2277V10.2277C14.2366 10.2642 14.3385 10.2473 14.4058 10.18L20.7782 3.80759C21.1687 3.41707 21.8019 3.41707 22.1924 3.80759C22.583 4.19811 22.583 4.83128 22.1924 5.2218L15.82 11.5942C15.7527 11.6616 15.7358 11.7634 15.7723 11.8514V11.8514C15.8087 11.9393 15.8929 12 15.9881 12H25C25.5523 12 26 12.4477 26 13V13C26 13.5523 25.5523 14 25 14H15.9881C15.8929 14 15.8087 14.0607 15.7723 14.1486V14.1486C15.7358 14.2366 15.7527 14.3385 15.82 14.4058L22.1923 20.7782C22.5829 21.1687 22.5829 21.8019 22.1923 22.1924V22.1924C21.8018 22.5829 21.1687 22.5829 20.7781 22.1924L14.4058 15.82C14.3384 15.7527 14.2366 15.7358 14.1486 15.7723V15.7723C14.0607 15.8087 14 15.8929 14 15.9881V25C14 25.5523 13.5523 26 13 26V26C12.4477 26 12 25.5523 12 25V15.9881C12 15.8929 11.9393 15.8087 11.8514 15.7723V15.7723C11.7634 15.7358 11.6616 15.7527 11.5942 15.82L5.22188 22.1924C4.83135 22.5829 4.19819 22.5829 3.80766 22.1924C3.41714 21.8018 3.41714 21.1687 3.80766 20.7782L10.18 14.4058C10.2473 14.3385 10.2642 14.2366 10.2277 14.1486V14.1486C10.1913 14.0607 10.1071 14 10.0119 14H1C0.447715 14 0 13.5523 0 13V13C0 12.4477 0.447714 12 0.999999 12H10.0119C10.1071 12 10.1913 11.9393 10.2277 11.8514V11.8514C10.2642 11.7634 10.2473 11.6616 10.18 11.5942L3.80757 5.22182C3.41705 4.83129 3.41705 4.19813 3.80757 3.8076V3.8076C4.1981 3.41708 4.83126 3.41708 5.22178 3.8076L11.5942 10.18C11.6615 10.2473 11.7634 10.2642 11.8514 10.2277V10.2277C11.9393 10.1913 12 10.1071 12 10.0119V1Z" fill="white"/>
</svg>
